<svg xmlns="http://www.w3.org/2000/svg" width="600" height="400" viewBox="0 0 600 400">
  <defs>
    <marker id="arr" viewBox="0 0 10 10" refX="9" refY="5" markerWidth="7" markerHeight="7" orient="auto">
      <path d="M0 1L10 5L0 9z" fill="#525252"/>
    </marker>
  </defs>
  <!-- MIDE (top) -->
  <rect x="220" y="20" width="160" height="62" rx="10" fill="#0a1628" stroke="#60a5fa" stroke-width="2"/>
  <text x="300" y="48" text-anchor="middle" font-family="-apple-system,BlinkMacSystemFont,'Segoe UI',sans-serif" font-size="17" font-weight="bold" fill="#60a5fa">MIDE</text>
  <text x="300" y="66" text-anchor="middle" font-family="-apple-system,BlinkMacSystemFont,'Segoe UI',sans-serif" font-size="9" fill="#737373">Estado actual con datos reales</text>
  <!-- IDENTIFICA (right) -->
  <rect x="410" y="169" width="160" height="62" rx="10" fill="#1a1506" stroke="#fbbf24" stroke-width="2"/>
  <text x="490" y="197" text-anchor="middle" font-family="-apple-system,BlinkMacSystemFont,'Segoe UI',sans-serif" font-size="17" font-weight="bold" fill="#fbbf24">IDENTIFICA</text>
  <text x="490" y="215" text-anchor="middle" font-family="-apple-system,BlinkMacSystemFont,'Segoe UI',sans-serif" font-size="9" fill="#737373">El cuello de botella real</text>
  <!-- ACTÚA (bottom) -->
  <rect x="220" y="318" width="160" height="62" rx="10" fill="#071a12" stroke="#34d399" stroke-width="2"/>
  <text x="300" y="346" text-anchor="middle" font-family="-apple-system,BlinkMacSystemFont,'Segoe UI',sans-serif" font-size="17" font-weight="bold" fill="#34d399">ACTÚA</text>
  <text x="300" y="364" text-anchor="middle" font-family="-apple-system,BlinkMacSystemFont,'Segoe UI',sans-serif" font-size="9" fill="#737373">Optimización dirigida</text>
  <!-- VERIFICA (left) -->
  <rect x="30" y="169" width="160" height="62" rx="10" fill="#1a0a0a" stroke="#f87171" stroke-width="2"/>
  <text x="110" y="197" text-anchor="middle" font-family="-apple-system,BlinkMacSystemFont,'Segoe UI',sans-serif" font-size="17" font-weight="bold" fill="#f87171">VERIFICA</text>
  <text x="110" y="215" text-anchor="middle" font-family="-apple-system,BlinkMacSystemFont,'Segoe UI',sans-serif" font-size="9" fill="#737373">Mide de nuevo</text>
  <!-- Clockwise arrows -->
  <path d="M 380 51 Q 490 51, 490 172" stroke="#525252" stroke-width="2" fill="none" marker-end="url(#arr)"/>
  <path d="M 490 231 Q 490 349, 383 349" stroke="#525252" stroke-width="2" fill="none" marker-end="url(#arr)"/>
  <path d="M 220 349 Q 110 349, 110 234" stroke="#525252" stroke-width="2" fill="none" marker-end="url(#arr)"/>
  <path d="M 110 169 Q 110 51, 223 51" stroke="#525252" stroke-width="2" fill="none" marker-end="url(#arr)"/>
</svg>
